# xmcd
#
# Track frame offsets:
#	150
#	10662
#	23342
#	39044
#	52650
#	69978
#	85794
#	105237
#	129730
#	140591
#	154056
#	176152
#	196505
#	204628
#	222985
#	241938
#	259928
#	266982
#	288045
#	308353
#	324636
#
# Disc length: 4627 seconds
#
# Revision: 1
# Processed by: cddbd v1.5.2PL0 Copyright (c) Steve Scherf et al.
# Submitted via: audiograbber 1.83.01
#
DISCID=0f121115
DTITLE=Various Artist - Macca's Top 100 [Disc 1]
DYEAR=2012
DGENRE=Country
TTITLE0=Digger Revell - Sunday With Macca
TTITLE1=Ian McNamara - Gumboots (Flood Relief)
TTITLE2=GANGgajang - Waiting In The Wind
TTITLE3=Sounds Great - I Still Call Australia Home
TTITLE4=K'crasher - Western Highway
TTITLE5=The Basics - Home Again
TTITLE6=The Waifs - Bridal Train
TTITLE7=Don Walker - Get Along
TTITLE8=Col Joye - Christmas Island
TTITLE9=Tallowood Bush Band - Number 97 (To The Snack Bar)
TTITLE10=Kathie Renner - Steamers
TTITLE11=Grant Luhrs - Full Moon Tonight
TTITLE12=Enda Kenny - Earl Grey
TTITLE13=John Hartford and Ian McNamara - Gumtree Canoe
TTITLE14=Michael Bausch - Quiet In Quinalow
TTITLE15=Phil Hungerford featuring The EDOCS - Technology
TTITLE16=Andra Muhoberac - Jam Drops
TTITLE17=Penny Davies and Roger Ilott - Where The Cane Fires Burn
TTITLE18=Eureka - Country Hotel
TTITLE19=Linn Lorkin - The Great South Land And The Land Of The Long White Clou
TTITLE19=d
TTITLE20=Gary Shearston - Shopping On A Saturday
EXTD=
EXTT0=
EXTT1=
EXTT2=
EXTT3=
EXTT4=
EXTT5=
EXTT6=
EXTT7=
EXTT8=
EXTT9=
EXTT10=
EXTT11=
EXTT12=
EXTT13=
EXTT14=
EXTT15=
EXTT16=
EXTT17=
EXTT18=
EXTT19=
EXTT20=
PLAYORDER=
